<svg xmlns="http://www.w3.org/2000/svg" width="920" height="460" viewBox="0 0 920 460"><rect width="100%" height="100%" fill="#fff"/><defs><style>.b{fill:#f5f5f5;stroke:#222;rx:12;ry:12}.t{font:16px sans-serif;fill:#111}.a{marker-end:url(#m)}</style><marker id="m" markerWidth="10" markerHeight="10" refX="6" refY="3" orient="auto"><path d="M0,0 L0,6 L6,3 z" fill="#111"/></marker></defs><rect class="b" x="40" y="40" width="240" height="120"/><text class="t" x="60" y="80">ESP32 Firmware</text><text class="t" x="60" y="110">DHT22 • MQTTS</text><rect class="b" x="360" y="40" width="200" height="120"/><text class="t" x="380" y="80">MQTT Broker</text><text class="t" x="380" y="110">Mosquitto TLS</text><rect class="b" x="640" y="40" width="240" height="120"/><text class="t" x="660" y="80">Backend API</text><text class="t" x="660" y="110">FastAPI • JWT</text><rect class="b" x="640" y="260" width="240" height="120"/><text class="t" x="660" y="300">Web UI</text><text class="t" x="660" y="330">React • HTTPS</text><line class="a" x1="280" y1="100" x2="360" y2="100" stroke="#111" stroke-width="2"/><line class="a" x1="560" y1="100" x2="640" y2="100" stroke="#111" stroke-width="2"/><line class="a" x1="760" y1="160" x2="760" y2="260" stroke="#111" stroke-width="2"/><text class="t" x="290" y="90">TLS</text><text class="t" x="570" y="90">TLS ingest</text><text class="t" x="770" y="215">HTTPS + JWT</text></svg>