<svg xmlns="http://www.w3.org/2000/svg" width="920" height="420" viewBox="0 0 920 420"><rect width="100%" height="100%" fill="#fff"/><defs><style>.b{fill:#eef7ff;stroke:#1b4b7a;rx:8;ry:8}.t{font:14px sans-serif;fill:#0b2540}.a{marker-end:url(#m)}</style><marker id="m" markerWidth="10" markerHeight="10" refX="6" refY="3" orient="auto"><path d="M0,0 L0,6 L6,3 z" fill="#1b4b7a"/></marker></defs><rect class="b" x="40" y="60" width="200" height="80"/><text class="t" x="60" y="100">Sensor Read</text><rect class="b" x="280" y="60" width="200" height="80"/><text class="t" x="300" y="100">JSON Encode</text><rect class="b" x="520" y="60" width="200" height="80"/><text class="t" x="540" y="100">MQTTS Publish</text><rect class="b" x="760" y="60" width="120" height="80"/><text class="t" x="780" y="100">Broker</text><rect class="b" x="520" y="220" width="200" height="80"/><text class="t" x="540" y="260">Backend Persist</text><rect class="b" x="760" y="220" width="120" height="80"/><text class="t" x="780" y="260">DB</text><rect class="b" x="280" y="220" width="200" height="80"/><text class="t" x="300" y="260">WS Broadcast</text><rect class="b" x="40" y="220" width="200" height="80"/><text class="t" x="60" y="260">UI Chart</text><line class="a" x1="240" y1="100" x2="280" y2="100" stroke="#1b4b7a" stroke-width="2"/><line class="a" x1="480" y1="100" x2="520" y2="100" stroke="#1b4b7a" stroke-width="2"/><line class="a" x1="720" y1="100" x2="760" y2="100" stroke="#1b4b7a" stroke-width="2"/><line class="a" x1="760" y1="140" x2="620" y2="220" stroke="#1b4b7a" stroke-width="2"/><line class="a" x1="620" y1="260" x2="480" y2="260" stroke="#1b4b7a" stroke-width="2"/><line class="a" x1="280" y1="260" x2="240" y2="260" stroke="#1b4b7a" stroke-width="2"/></svg>